<?xml version="1.0" standalone="no"?>
<!DOCTYPE svg PUBLIC "-//W3C//DTD SVG 20010904//EN"
 "http://www.w3.org/TR/2001/REC-SVG-20010904/DTD/svg10.dtd">
<svg version="1.0" xmlns="http://www.w3.org/2000/svg"
 width="512.000000pt" height="512.000000pt" viewBox="0 0 512.000000 512.000000"
 preserveAspectRatio="xMidYMid meet">
<metadata>
Created by potrace 1.11, written by Peter Selinger 2001-2013
</metadata>
<g transform="translate(0.000000,512.000000) scale(0.100000,-0.100000)"
fill="#000000" stroke="none">
<path d="M2378 5115 c-2 -1 -39 -5 -82 -9 -44 -4 -82 -9 -85 -11 -4 -2 -34 -7
-66 -10 -117 -14 -472 -111 -499 -136 -6 -5 -16 -9 -23 -9 -8 0 -49 -16 -91
-35 -352 -161 -618 -354 -877 -637 -33 -36 -71 -80 -85 -98 -14 -18 -29 -38
-35 -44 -82 -92 -246 -369 -323 -546 -61 -142 -131 -351 -146 -443 -3 -15 -7
-35 -10 -45 -3 -9 -7 -34 -11 -56 -3 -21 -7 -41 -9 -45 -4 -6 -12 -72 -26
-201 -8 -85 -5 -454 4 -515 4 -22 13 -80 21 -130 50 -304 158 -605 314 -875
45 -77 161 -248 184 -272 7 -7 19 -22 27 -34 66 -94 252 -282 393 -395 233
-188 473 -322 757 -424 96 -34 289 -87 364 -99 17 -3 54 -9 81 -14 28 -5 57
-10 65 -10 8 0 44 -4 80 -9 36 -4 164 -8 285 -7 219 0 330 11 510 50 652 139
1226 531 1598 1090 193 291 337 656 393 994 38 235 40 573 5 805 -96 632 -434
1215 -936 1616 -78 63 -199 147 -290 201 -66 39 -298 158 -310 158 -4 0 -21 6
-38 14 -137 62 -421 138 -607 162 -25 3 -56 8 -70 10 -27 6 -456 14 -462 9z"/>
</g>
</svg>
