<?xml version="1.0" standalone="no"?>
<!DOCTYPE svg PUBLIC "-//W3C//DTD SVG 20010904//EN"
 "http://www.w3.org/TR/2001/REC-SVG-20010904/DTD/svg10.dtd">
<svg version="1.0" xmlns="http://www.w3.org/2000/svg"
 width="16pt" height="16pt" viewBox="0 0 16 16"
 preserveAspectRatio="xMidYMid meet">
<metadata>
Created by potrace 1.11, written by Peter Selinger 2001-2013
</metadata>
<g fill="#000000" stroke="none">
<path d="M 5.710938 11.894531 C 5.082031 13.535156 3.257812 14.570312 1.335938 14.667969 C 1.429688 12.820312 2.457031 10.929688 4.140625 10.292969 L 4.480469 10.640625 C 3.457031 11.65625 3.105469 12.484375 3.050781 12.949219 C 3.519531 12.890625 4.390625 12.542969 5.375 11.550781 Z M 4.953125 4.332031 C 3.769531 4.328125 2.246094 4.941406 1.109375 6.074219 C 0.675781 6.507812 0.292969 7.015625 0 7.582031 C 1.023438 6.804688 2.152344 6.589844 3.429688 7.308594 C 3.808594 6.3125 4.3125 5.300781 4.953125 4.332031 Z M 8.421875 16 C 8.992188 15.707031 9.496094 15.324219 9.929688 14.890625 C 11.070312 13.753906 11.679688 12.222656 11.664062 11.035156 C 10.617188 11.722656 9.582031 12.21875 8.6875 12.566406 C 9.40625 13.847656 9.199219 14.976562 8.421875 16 Z M 15.964844 0.03125 C 15.679688 0.0078125 15.398438 0 15.125 0 C 8.898438 0 5.480469 4.949219 4.390625 8.671875 L 7.339844 11.625 C 11.195312 10.386719 16 7.105469 16 0.960938 L 16 0.921875 C 16 0.632812 15.988281 0.335938 15.964844 0.03125 Z M 12 5.332031 C 11.261719 5.332031 10.667969 4.738281 10.667969 4 C 10.667969 3.261719 11.261719 2.667969 12 2.667969 C 12.738281 2.667969 13.332031 3.261719 13.332031 4 C 13.332031 4.738281 12.738281 5.332031 12 5.332031 Z M 12 5.332031"/>
</g>
</svg>
